<svg width="100" height="37" viewBox="0 0 100 37" fill="none" xmlns="http://www.w3.org/2000/svg">
<path fill-rule="evenodd" clip-rule="evenodd" d="M27.5006 0C27.5006 0 18.5006 0 13.5006 0C8.50056 0 -0.0796683 7.49066 0.000558614 17.5C0.0807855 27.5093 7.50057 35.5 13.5006 35.5C19.5005 35.5 28.5006 35.5 28.5006 35.5V4.5H29.5006L37.5006 36H42.5006L49.0006 6.5H50.0006L56.5006 36H61.5006L69.5006 4.5H70.5006V35.5C70.5006 35.5 77.5005 36.5 85.0006 36C92.5006 35.5 99.5005 28 99.0006 17.5C98.5006 7 90.5006 0 85.0006 0C79.5005 0 66.0006 0 66.0006 0L59.0006 30L51.5006 0H47.5006L40.5006 29.5H39.5006L32.0006 0H27.5006ZM23.5005 31.5L23.0006 4.5C23.0006 4.5 16.0006 4.5 13.5006 4.5C11.0006 4.5 4.00057 10 4.00056 17.5C4.00055 25 9.00056 31.5 14.5005 31.5C20.0005 31.5 23.5005 31.5 23.5005 31.5ZM76.0006 32V4.5C76.0006 4.5 81.0005 4 85.0006 4.5C89.0006 5 94.8444 10.2244 95.0006 17.5C95.5799 25.7971 90.0006 31.5 85.0006 32C80.0005 32.5 76.0006 32 76.0006 32Z" fill="url(#paint0_linear)"/>
<defs>
<linearGradient id="paint0_linear" x1="0" y1="0" x2="99" y2="36" gradientUnits="userSpaceOnUse">
<stop stop-color="#8E37FF"/>
<stop offset="0.677083" stop-color="#4E12BB"/>
<stop offset="1" stop-color="#30009B"/>
</linearGradient>
</defs>
</svg>
